<mxfile host="app.diagrams.net" modified="2024-05-09T08:51:31.175Z" agent="Mozilla/5.0 (X11; Linux x86_64) AppleWebKit/537.36 (KHTML, like Gecko) Chrome/122.0.0.0 Safari/537.36" version="24.2.5" etag="Ltt1X8r9-WXmkPl-UF_N" type="github">
  <diagram name="Page-1" id="IjWUP9i7PuynatKF41-h">
    <mxGraphModel>
      <root>
        <mxCell id="0" />
        <mxCell id="1" parent="0" />
      </root>
    </mxGraphModel>
  </diagram>
</mxfile>
